<svg width="14" height="15" viewBox="0 0 14 15" fill="none" xmlns="http://www.w3.org/2000/svg">
<path fillRule="evenodd" clip-rule="evenodd" d="M5.40169 9.59112C5.27369 9.59112 5.14569 9.54245 5.04836 9.44445C4.85302 9.24912 4.85302 8.93312 5.04836 8.73779L8.24302 5.54312C8.43836 5.34779 8.75436 5.34779 8.94969 5.54312C9.14502 5.73845 9.14502 6.05445 8.94969 6.24979L5.75502 9.44445C5.65769 9.54245 5.52969 9.59112 5.40169 9.59112Z" fill="white"/>
<path fillRule="evenodd" clip-rule="evenodd" d="M8.59756 9.59307C8.46956 9.59307 8.34156 9.5444 8.24422 9.4464L5.04689 6.2484C4.85156 6.05307 4.85156 5.73707 5.04689 5.54173C5.24289 5.3464 5.55889 5.3464 5.75356 5.54173L8.95089 8.73973C9.14622 8.93507 9.14622 9.25107 8.95089 9.4464C8.85356 9.5444 8.72489 9.59307 8.59756 9.59307Z" fill="white"/>
<path fillRule="evenodd" clip-rule="evenodd" d="M4.10992 1.83333C2.42325 1.83333 1.33325 2.98866 1.33325 4.77733V10.2227C1.33325 12.0113 2.42325 13.1667 4.10992 13.1667H9.88859C11.5759 13.1667 12.6666 12.0113 12.6666 10.2227V4.77733C12.6666 2.98866 11.5759 1.83333 9.88925 1.83333H4.10992ZM9.88859 14.1667H4.10992C1.85059 14.1667 0.333252 12.5813 0.333252 10.2227V4.77733C0.333252 2.41866 1.85059 0.833328 4.10992 0.833328H9.88925C12.1486 0.833328 13.6666 2.41866 13.6666 4.77733V10.2227C13.6666 12.5813 12.1486 14.1667 9.88859 14.1667Z" fill="white"/>
</svg>
