<svg width="51" height="51" viewBox="0 0 51 51" fill="none" xmlns="http://www.w3.org/2000/svg">
<path d="M17.0076 25.7808C17.0076 21.1786 20.7396 17.4468 25.3446 17.4468C29.9496 17.4468 33.6836 21.1786 33.6836 25.7808C33.6836 30.383 29.9496 34.1148 25.3446 34.1148C20.7396 34.1148 17.0076 30.383 17.0076 25.7808ZM12.4997 25.7808C12.4997 32.8708 18.2503 38.618 25.3446 38.618C32.4388 38.618 38.1895 32.8708 38.1895 25.7808C38.1895 18.6908 32.4388 12.9436 25.3446 12.9436C18.2503 12.9436 12.4997 18.6908 12.4997 25.7808ZM35.6962 12.4346C35.696 13.0279 35.8718 13.608 36.2014 14.1015C36.5311 14.595 36.9997 14.9797 37.5481 15.2069C38.0966 15.4342 38.7001 15.4939 39.2824 15.3784C39.8648 15.2628 40.3998 14.9773 40.8197 14.5579C41.2397 14.1385 41.5258 13.6041 41.6419 13.0222C41.7579 12.4403 41.6987 11.8371 41.4718 11.2888C41.2448 10.7406 40.8602 10.2719 40.3667 9.94202C39.8732 9.61218 39.2929 9.436 38.6992 9.43576H38.698C37.9022 9.43613 37.1391 9.75216 36.5762 10.3144C36.0134 10.8767 35.6969 11.6392 35.6962 12.4346ZM15.2385 46.1302C12.7997 46.0192 11.4741 45.6132 10.5931 45.2702C9.42524 44.8158 8.59194 44.2746 7.71582 43.4002C6.83969 42.5258 6.29737 41.6938 5.8447 40.5266C5.50129 39.6466 5.09505 38.3214 4.98418 35.884C4.86291 33.2488 4.83869 32.4572 4.83869 25.781C4.83869 19.1048 4.86491 18.3154 4.98418 15.678C5.09525 13.2406 5.50449 11.918 5.8447 11.0354C6.29937 9.86816 6.84089 9.03536 7.71582 8.15976C8.59074 7.28416 9.42324 6.74216 10.5931 6.28976C11.4737 5.94656 12.7997 5.54056 15.2385 5.42976C17.8753 5.30856 18.6674 5.28436 25.3446 5.28436C32.0218 5.28436 32.8147 5.31056 35.4537 5.42976C37.8925 5.54076 39.2159 5.94976 40.099 6.28976C41.2669 6.74216 42.1002 7.28536 42.9764 8.15976C43.8525 9.03416 44.3928 9.86816 44.8475 11.0354C45.1909 11.9154 45.5971 13.2406 45.708 15.678C45.8293 18.3154 45.8535 19.1048 45.8535 25.781C45.8535 32.4572 45.8293 33.2466 45.708 35.884C45.5969 38.3214 45.1887 39.6462 44.8475 40.5266C44.3928 41.6938 43.8513 42.5266 42.9764 43.4002C42.1014 44.2738 41.2669 44.8158 40.099 45.2702C39.2185 45.6134 37.8925 46.0194 35.4537 46.1302C32.8169 46.2514 32.0248 46.2756 25.3446 46.2756C18.6644 46.2756 17.8745 46.2514 15.2385 46.1302ZM15.0314 0.932162C12.3684 1.05336 10.5487 1.47536 8.95957 2.09336C7.31378 2.73156 5.92054 3.58776 4.52831 4.97696C3.13607 6.36616 2.28156 7.76076 1.64298 9.40556C1.02461 10.9948 0.602353 12.8124 0.481081 15.4738C0.357807 18.1394 0.32959 18.9916 0.32959 25.7808C0.32959 32.57 0.357807 33.4222 0.481081 36.0878C0.602353 38.7494 1.02461 40.5668 1.64298 42.156C2.28156 43.7998 3.13627 45.196 4.52831 46.5846C5.92034 47.9732 7.31378 48.8282 8.95957 49.4682C10.5517 50.0862 12.3684 50.5082 15.0314 50.6294C17.7 50.7506 18.5513 50.7808 25.3446 50.7808C32.1379 50.7808 32.9906 50.7526 35.6578 50.6294C38.321 50.5082 40.1395 50.0862 41.7296 49.4682C43.3744 48.8282 44.7686 47.9738 46.1609 46.5846C47.5531 45.1954 48.4058 43.7998 49.0462 42.156C49.6646 40.5668 50.0888 38.7492 50.2081 36.0878C50.3294 33.4202 50.3576 32.57 50.3576 25.7808C50.3576 18.9916 50.3294 18.1394 50.2081 15.4738C50.0868 12.8122 49.6646 10.9938 49.0462 9.40556C48.4058 7.76176 47.5509 6.36836 46.1609 4.97696C44.7708 3.58556 43.3744 2.73156 41.7316 2.09336C40.1395 1.47536 38.3208 1.05136 35.6598 0.932162C32.9926 0.810962 32.1399 0.780762 25.3466 0.780762C18.5533 0.780762 17.7 0.808962 15.0314 0.932162Z" fill="url(#paint0_radial_539_1614)"/>
<path d="M17.0076 25.7808C17.0076 21.1786 20.7396 17.4468 25.3446 17.4468C29.9496 17.4468 33.6836 21.1786 33.6836 25.7808C33.6836 30.383 29.9496 34.1148 25.3446 34.1148C20.7396 34.1148 17.0076 30.383 17.0076 25.7808ZM12.4997 25.7808C12.4997 32.8708 18.2503 38.618 25.3446 38.618C32.4388 38.618 38.1895 32.8708 38.1895 25.7808C38.1895 18.6908 32.4388 12.9436 25.3446 12.9436C18.2503 12.9436 12.4997 18.6908 12.4997 25.7808ZM35.6962 12.4346C35.696 13.0279 35.8718 13.608 36.2014 14.1015C36.5311 14.595 36.9997 14.9797 37.5481 15.2069C38.0966 15.4342 38.7001 15.4939 39.2824 15.3784C39.8648 15.2628 40.3998 14.9773 40.8197 14.5579C41.2397 14.1385 41.5258 13.6041 41.6419 13.0222C41.7579 12.4403 41.6987 11.8371 41.4718 11.2888C41.2448 10.7406 40.8602 10.2719 40.3667 9.94202C39.8732 9.61218 39.2929 9.436 38.6992 9.43576H38.698C37.9022 9.43613 37.1391 9.75216 36.5762 10.3144C36.0134 10.8767 35.6969 11.6392 35.6962 12.4346ZM15.2385 46.1302C12.7997 46.0192 11.4741 45.6132 10.5931 45.2702C9.42524 44.8158 8.59194 44.2746 7.71582 43.4002C6.83969 42.5258 6.29737 41.6938 5.8447 40.5266C5.50129 39.6466 5.09505 38.3214 4.98418 35.884C4.86291 33.2488 4.83869 32.4572 4.83869 25.781C4.83869 19.1048 4.86491 18.3154 4.98418 15.678C5.09525 13.2406 5.50449 11.918 5.8447 11.0354C6.29937 9.86816 6.84089 9.03536 7.71582 8.15976C8.59074 7.28416 9.42324 6.74216 10.5931 6.28976C11.4737 5.94656 12.7997 5.54056 15.2385 5.42976C17.8753 5.30856 18.6674 5.28436 25.3446 5.28436C32.0218 5.28436 32.8147 5.31056 35.4537 5.42976C37.8925 5.54076 39.2159 5.94976 40.099 6.28976C41.2669 6.74216 42.1002 7.28536 42.9764 8.15976C43.8525 9.03416 44.3928 9.86816 44.8475 11.0354C45.1909 11.9154 45.5971 13.2406 45.708 15.678C45.8293 18.3154 45.8535 19.1048 45.8535 25.781C45.8535 32.4572 45.8293 33.2466 45.708 35.884C45.5969 38.3214 45.1887 39.6462 44.8475 40.5266C44.3928 41.6938 43.8513 42.5266 42.9764 43.4002C42.1014 44.2738 41.2669 44.8158 40.099 45.2702C39.2185 45.6134 37.8925 46.0194 35.4537 46.1302C32.8169 46.2514 32.0248 46.2756 25.3446 46.2756C18.6644 46.2756 17.8745 46.2514 15.2385 46.1302ZM15.0314 0.932162C12.3684 1.05336 10.5487 1.47536 8.95957 2.09336C7.31378 2.73156 5.92054 3.58776 4.52831 4.97696C3.13607 6.36616 2.28156 7.76076 1.64298 9.40556C1.02461 10.9948 0.602353 12.8124 0.481081 15.4738C0.357807 18.1394 0.32959 18.9916 0.32959 25.7808C0.32959 32.57 0.357807 33.4222 0.481081 36.0878C0.602353 38.7494 1.02461 40.5668 1.64298 42.156C2.28156 43.7998 3.13627 45.196 4.52831 46.5846C5.92034 47.9732 7.31378 48.8282 8.95957 49.4682C10.5517 50.0862 12.3684 50.5082 15.0314 50.6294C17.7 50.7506 18.5513 50.7808 25.3446 50.7808C32.1379 50.7808 32.9906 50.7526 35.6578 50.6294C38.321 50.5082 40.1395 50.0862 41.7296 49.4682C43.3744 48.8282 44.7686 47.9738 46.1609 46.5846C47.5531 45.1954 48.4058 43.7998 49.0462 42.156C49.6646 40.5668 50.0888 38.7492 50.2081 36.0878C50.3294 33.4202 50.3576 32.57 50.3576 25.7808C50.3576 18.9916 50.3294 18.1394 50.2081 15.4738C50.0868 12.8122 49.6646 10.9938 49.0462 9.40556C48.4058 7.76176 47.5509 6.36836 46.1609 4.97696C44.7708 3.58556 43.3744 2.73156 41.7316 2.09336C40.1395 1.47536 38.3208 1.05136 35.6598 0.932162C32.9926 0.810962 32.1399 0.780762 25.3466 0.780762C18.5533 0.780762 17.7 0.808962 15.0314 0.932162Z" fill="url(#paint1_radial_539_1614)"/>
<defs>
<radialGradient id="paint0_radial_539_1614" cx="0" cy="0" r="1" gradientUnits="userSpaceOnUse" gradientTransform="translate(6.97637 51.017) scale(65.31 65.2708)">
<stop offset="0.09" stop-color="#FA8F21"/>
<stop offset="0.78" stop-color="#D82D7E"/>
</radialGradient>
<radialGradient id="paint1_radial_539_1614" cx="0" cy="0" r="1" gradientUnits="userSpaceOnUse" gradientTransform="translate(30.6706 53.257) scale(51.4733 51.4424)">
<stop offset="0.64" stop-color="#8C3AAA" stop-opacity="0"/>
<stop offset="1" stop-color="#8C3AAA"/>
</radialGradient>
</defs>
</svg>
