<svg id="Layer_1" data-name="Layer 1"
  xmlns="http://www.w3.org/2000/svg" viewBox="0 0 350.7 105.21">
  <path class="cls-1" fill="#020204" d="M201.26,198.23H183.82V176h17a4,4,0,0,1,3,1.26,4.08,4.08,0,0,1,1.24,3v3a4.13,4.13,0,0,1-2.35,3.81,4.16,4.16,0,0,1,2.82,4v3a4.15,4.15,0,0,1-1.23,3,4.1,4.1,0,0,1-3,1.25Zm-2.6-4.95a.92.92,0,0,0,.67-.29.91.91,0,0,0,.28-.67v-1.77a.91.91,0,0,0-.28-.67.92.92,0,0,0-.67-.29h-8.95v3.69Zm-.47-8.64a.91.91,0,0,0,.68-.29.93.93,0,0,0,.27-.66v-1.78a.94.94,0,0,0-.27-.67.9.9,0,0,0-.68-.28h-8.48v3.68Zm15.92,13.59h-5.89V193.5h5.89v4.73Zm9.15,0h-5.89V176h5.89v22.23Zm28.05,0h-5.89l-11.81-13.81v13.81h-5.89V176h5.89l11.81,13.82V176h5.89v22.23Zm19.18,0H263.4L253.75,176h6.36L267,191.72,273.79,176h6.36l-9.66,22.23Zm31.5,0H286.42a4.27,4.27,0,0,1-4.25-4.25V180.26a4.29,4.29,0,0,1,4.25-4.26H302v5H289a.9.9,0,0,0-.66.28.92.92,0,0,0-.29.67v2.73h12v5h-12v2.73a1,1,0,0,0,.95,1h13v4.95Zm20.29,0H305.54v-4.95h14.15a.91.91,0,0,0,.68-.29.94.94,0,0,0,.27-.67v-1.77a.94.94,0,0,0-.27-.67.91.91,0,0,0-.68-.29H309.56a4.23,4.23,0,0,1-4.24-4.25v-5.08a4.29,4.29,0,0,1,4.24-4.26h16.49v5h-13.9a.9.9,0,0,0-.66.28.92.92,0,0,0-.29.67v1.78a1,1,0,0,0,.95.95h10.13a4.23,4.23,0,0,1,4.25,4.25V194a4.16,4.16,0,0,1-1.24,3,4.08,4.08,0,0,1-3,1.25Zm20.33,0h-5.92V181H328.8v-5h21.69v5h-7.88v17.27ZM195.25,210.82H183.37v17.79h11.88a5.3,5.3,0,0,0,5.29-5.31v-7.17a5.3,5.3,0,0,0-5.29-5.31Zm2.08,12.12a2.65,2.65,0,0,1-2.64,2.64h-8.1V213.84h8.1a2.66,2.66,0,0,1,2.64,2.65v6.45Zm6.25-8.71v11a3.41,3.41,0,0,0,3.4,3.41h10.94v-3H207.53a.74.74,0,0,1-.73-.76v-3.58h9.6v-3.05h-9.6v-3.58a.75.75,0,0,1,.73-.77h10.39v-3H207a3.41,3.41,0,0,0-3.4,3.41ZM229,225l-6.31-14.18h-3.49l7.93,17.79h3.77l7.9-17.79h-3.47L229,225Zm11.4-10.77v11a3.4,3.4,0,0,0,3.39,3.41h10.94v-3H244.31a.74.74,0,0,1-.74-.76v-3.58h9.6v-3.05h-9.6v-3.58a.75.75,0,0,1,.74-.77h10.38v-3H243.75a3.4,3.4,0,0,0-3.39,3.41Zm20.38-3.41h-3.21v17.79h13.19v-3h-10V210.82Zm25.91,0H276.09a3.41,3.41,0,0,0-3.4,3.41v11a3.41,3.41,0,0,0,3.4,3.41h10.56A3.4,3.4,0,0,0,290,225.2v-11a3.4,3.4,0,0,0-3.39-3.41Zm.2,14a.76.76,0,0,1-.76.76h-9.44a.74.74,0,0,1-.74-.76V214.61a.75.75,0,0,1,.74-.77h9.44a.77.77,0,0,1,.76.77v10.21Zm19.81-14h-13.2v17.79h3.22v-6.33h10a3.4,3.4,0,0,0,3.39-3.43v-4.62a3.4,3.4,0,0,0-3.39-3.41Zm.2,7.67a.76.76,0,0,1-.76.74h-9.42v-5.39h9.42a.77.77,0,0,1,.76.77v3.88Zm22-7.67h-.18l-6.23,9.38-6.23-9.38h-3.4v17.79h3.22V216.23l4.79,7.27h3.21l4.82-7.27v12.38h3.21V210.82Zm6.61,3.41v11a3.4,3.4,0,0,0,3.39,3.41h10.94v-3H339.43a.74.74,0,0,1-.74-.76v-3.58h9.6v-3.05h-9.6v-3.58a.75.75,0,0,1,.74-.77h10.38v-3H338.87a3.4,3.4,0,0,0-3.39,3.41Zm31.32,9.47-10.94-12.88h-3.21v17.79h3.21V215.72l10.94,12.89H370V210.82H366.8V223.7Zm5.3-9.86h6.3v14.77h3.22V213.84H388v-3H372.1Z" transform="translate(-37.25 -149.7)"/>
  <path class="cls-2" fill="#d7b46a" fillRule="evenodd" d="M102.76,218,43.63,254.24a4.07,4.07,0,0,1-4.16.18,3.82,3.82,0,0,1-2-3.51l.13-17.32a4.49,4.49,0,0,1,3.87-4.39A4.76,4.76,0,0,0,44.8,227l9.49-14.79A4.35,4.35,0,0,1,58,210.13l43,.11a3.81,3.81,0,0,1,3.81,3,4.37,4.37,0,0,1-2.06,4.71Zm-65.51,1a3.85,3.85,0,0,0,3,3.87,4.36,4.36,0,0,0,4.71-2l20.93-32.67a4.16,4.16,0,0,0,.32-4.11l-8.27-17.44a4.41,4.41,0,0,1,.1-4,4.05,4.05,0,0,0-1.47-5.48l-12.41-7a4.08,4.08,0,0,0-4.23.15,4.39,4.39,0,0,0-2.16,3.77L37.25,219Zm31.28-56.14a4.18,4.18,0,0,0-5,.72,4.28,4.28,0,0,0-1,5l17,35.91a3.8,3.8,0,0,0,3.54,2.22l21.5.05a3.86,3.86,0,0,1,3.62,1.89,4.32,4.32,0,0,0,5.54,1.07l11.91-7.3a4.41,4.41,0,0,0,2.16-3.7,3.83,3.83,0,0,0-2-3.56Z" transform="translate(-37.25 -149.7)"/>
  <rect class="cls-3" fill="#d7b46a" x="113.98" y="8.77" width="2.92" height="87.68"/>
</svg>