<svg xmlns="http://www.w3.org/2000/svg" width="160" height="46" fill="none" viewBox="0 0 160 46">
  <g filter="url(#filter0_i_75_815)">
    <path fill="#402E32" fillRule="evenodd" d="M74.836 21.43h-7.96v-8.717h7.743c.257-.002.51.04.747.125.236.085.45.21.627.369.18.153.321.336.417.537.095.201.142.417.138.635v1.164c.01.31-.087.617-.275.883a1.81 1.81 0 01-.788.613c.38.11.709.322.94.604.23.282.349.62.34.964v1.157a1.42 1.42 0 01-.139.634 1.626 1.626 0 01-.416.538 1.916 1.916 0 01-.628.368c-.236.085-.49.128-.746.125zm-1.186-1.941a.49.49 0 00.302-.114.366.366 0 00.131-.258v-.704a.366.366 0 00-.131-.258.49.49 0 00-.302-.114h-4.092v1.448h4.092zm-.216-3.388c.058 0 .115-.01.169-.029a.431.431 0 00.234-.203.309.309 0 00.03-.14v-.695a.307.307 0 00-.029-.145.431.431 0 00-.235-.207.483.483 0 00-.169-.028h-3.876V16.1h3.876zm7.263 5.328h-2.69v-1.884h2.69V21.43zm4.178 0h-2.691v-8.716h2.69v8.716zm12.795 0h-2.69l-5.383-5.417v5.417h-2.69v-8.716h2.69l5.382 5.417v-5.417h2.69v8.716zm8.75 0h-3.265l-4.403-8.716h2.907l3.114 6.161 3.124-6.16h2.907l-4.412 8.715h.028zm14.376 0h-7.103a2.117 2.117 0 01-1.368-.49c-.363-.312-.568-.734-.571-1.175v-5.385c.003-.441.208-.864.571-1.176a2.118 2.118 0 011.368-.49h7.103v1.981h-5.927a.482.482 0 00-.164.03.429.429 0 00-.137.083.35.35 0 00-.132.267v1.067h5.494v1.94h-5.485v1.076c.005.098.052.19.132.259a.49.49 0 00.301.113h5.927v1.94l-.009-.04zm9.258 0h-7.64v-1.94h6.454c.058 0 .116-.01.169-.03a.434.434 0 00.234-.202.311.311 0 00.03-.14v-.704a.311.311 0 00-.03-.14.432.432 0 00-.234-.203.483.483 0 00-.169-.029h-4.619a2.147 2.147 0 01-.74-.122 1.938 1.938 0 01-.625-.363 1.635 1.635 0 01-.428-.54 1.414 1.414 0 01-.145-.64v-1.997c.005-.44.21-.862.573-1.173a2.126 2.126 0 011.365-.493h7.526v1.981h-6.341a.48.48 0 00-.31.113.355.355 0 00-.094.123.316.316 0 00-.029.144v.696c0 .047.01.095.031.14a.351.351 0 00.092.118.48.48 0 00.31.113h4.62a2.16 2.16 0 01.751.113c.239.082.454.204.636.36s.325.343.42.548c.094.205.139.424.131.645v1.997c.003.218-.046.434-.143.636a1.62 1.62 0 01-.422.536 1.921 1.921 0 01-.627.369c-.236.085-.49.127-.746.125v-.04zm9.276 0h-2.7v-6.735h-3.603v-1.94h9.897v1.94h-3.594v6.776-.04zm-67.222 4.94h-5.42v6.97h5.42c.317 0 .633-.052.926-.156a2.47 2.47 0 00.786-.45c.225-.194.403-.423.524-.676.12-.252.183-.523.181-.796v-2.822a1.823 1.823 0 00-.18-.796 2.08 2.08 0 00-.525-.676 2.466 2.466 0 00-.785-.45 2.765 2.765 0 00-.927-.156v.008zm.94 4.746c0 .276-.126.54-.352.735a1.32 1.32 0 01-.852.308h-3.697V27.55h3.697c.319.002.624.111.849.305a.975.975 0 01.355.73v2.53zm2.823-3.412v4.302c0 .175.04.348.118.51.078.162.192.31.337.433.144.124.315.222.503.29.189.066.39.1.594.1h5.034v-1.18h-4.704a.387.387 0 01-.132-.023.35.35 0 01-.111-.065.298.298 0 01-.073-.097.259.259 0 01-.023-.114v-1.407h4.384v-1.205h-4.384v-1.406a.26.26 0 01.023-.114.3.3 0 01.073-.097.351.351 0 01.11-.066.387.387 0 01.132-.023h4.705v-1.18H77.46c-.412 0-.807.14-1.098.39-.29.251-.454.59-.454.944l-.038.008zm11.582 4.22l-2.88-5.554h-1.59l3.614 6.97h1.721l3.604-6.97H90.36l-2.888 5.555h-.02zm5.202-4.22v4.302a1.17 1.17 0 00.115.51c.077.161.19.309.334.433.144.123.314.222.502.289.187.067.39.102.592.102h4.996v-1.18H94.49a.353.353 0 01-.237-.09.294.294 0 01-.07-.098.254.254 0 01-.022-.112v-1.407h4.374v-1.205h-4.374v-1.406a.255.255 0 01.022-.112.288.288 0 01.07-.096.337.337 0 01.108-.066.384.384 0 01.13-.026h4.703v-1.18h-4.977c-.203 0-.405.035-.592.102a1.58 1.58 0 00-.502.29 1.333 1.333 0 00-.334.432 1.17 1.17 0 00-.115.51l-.019.008zm9.296-1.334h-1.468v6.97h6.021v-1.18h-4.553v-5.79zm11.826 0h-4.817c-.412 0-.806.14-1.098.391-.291.25-.454.59-.454.943v4.302c0 .175.04.348.118.51.078.162.192.31.336.433.145.124.316.222.504.29.188.066.39.1.594.1h4.817c.204 0 .405-.034.593-.101.188-.067.358-.166.502-.29.143-.123.257-.27.334-.432.076-.162.116-.335.114-.51v-4.302a1.168 1.168 0 00-.114-.51 1.336 1.336 0 00-.334-.432 1.584 1.584 0 00-.502-.29 1.76 1.76 0 00-.593-.102zm.094 5.49a.29.29 0 01-.104.21.388.388 0 01-.244.09h-4.309a.382.382 0 01-.243-.089.29.29 0 01-.072-.097.252.252 0 01-.024-.114v-4.042a.253.253 0 01.024-.114.293.293 0 01.072-.098.382.382 0 01.243-.088h4.29a.39.39 0 01.244.09.29.29 0 01.105.21v4.042h.018zm9.033-5.49h-6.022v6.97h1.468v-2.474h4.563c.204 0 .407-.035.596-.103.189-.067.361-.166.505-.29.144-.126.258-.274.336-.437a1.18 1.18 0 00.115-.512v-1.811c0-.354-.163-.694-.455-.944a1.689 1.689 0 00-1.097-.39l-.009-.009zm.093 3.008a.28.28 0 01-.105.206.38.38 0 01-.243.085h-4.299V27.55h4.299c.093 0 .181.031.247.087a.28.28 0 01.101.212v1.528zm10.039-3.008h-.075l-2.823 3.67-2.822-3.67h-1.581v6.97h1.468v-4.851l2.183 2.854h1.467l2.192-2.854v4.85h1.469V26.37h-1.478zm3.021 1.334v4.302a1.14 1.14 0 00.115.51c.076.161.189.309.332.433.144.123.315.222.502.289.189.067.39.102.593.102h4.996v-1.18h-4.705a.38.38 0 01-.236-.091.27.27 0 01-.093-.208v-1.408h4.376v-1.205h-4.376v-1.406a.271.271 0 01.093-.208.37.37 0 01.236-.091h4.705V26.36h-4.996c-.203 0-.404.035-.593.102a1.597 1.597 0 00-.502.29 1.316 1.316 0 00-.332.432 1.141 1.141 0 00-.115.51v.008zm14.29 3.711l-4.986-5.045h-1.477v6.97h1.477v-5.046l4.986 5.046h1.458v-6.97h-1.458v5.045zm2.418-3.864h2.88v5.789h1.467v-5.79H160v-1.18h-7.235v1.18z" clipRule="evenodd"></path>
    <path fill="#D4B7A5" d="M53.337 5.84H52v34.378h1.336V5.84z"></path>
  </g>
  <path fill="#D7B56D" fillRule="evenodd" d="M29.891 28.826L2.908 43.04c-.28.152-.6.238-.93.249a2.141 2.141 0 01-.952-.184 1.642 1.642 0 01-.704-.57 1.32 1.32 0 01-.236-.805l.056-6.792c.005-.421.186-.828.51-1.144a2.16 2.16 0 011.259-.578c.313-.038.612-.134.877-.282.265-.148.49-.344.656-.575l4.328-5.805c.18-.248.431-.453.73-.595a2.26 2.26 0 01.973-.213l19.617.048c.405-.007.802.107 1.12.324.317.218.537.523.62.865.087.354.044.723-.125 1.055-.169.332-.454.61-.816.796v-.008zm-29.89.388c-.013.347.114.687.359.963.245.275.594.47.986.55.411.078.84.041 1.226-.104.386-.146.708-.392.92-.705l9.549-12.816a1.423 1.423 0 00.15-1.617l-3.763-6.84a1.522 1.522 0 01-.218-.78c0-.271.074-.539.218-.78.227-.364.283-.789.157-1.187-.126-.399-.424-.74-.834-.956l-5.645-2.74A2.134 2.134 0 002.132 2c-.34.01-.67.099-.955.257a1.857 1.857 0 00-.697.633c-.165.26-.249.551-.244.846L.02 29.166l-.02.048zM14.273 7.198a2.146 2.146 0 00-1.194-.192 2.004 2.004 0 00-1.082.475c-.31.24-.522.558-.607.908-.085.35-.037.715.136 1.04l7.781 14.077c.142.265.37.488.658.643.287.155.62.235.96.23h9.813c.328-.02.655.04.946.171.291.131.533.33.7.573.294.319.71.537 1.175.614.465.077.946.009 1.357-.193l5.428-2.863c.286-.155.523-.37.687-.624.165-.254.252-.54.254-.831.017-.28-.058-.56-.216-.805a1.644 1.644 0 00-.678-.586L14.273 7.198z" clipRule="evenodd"></path>
  <defs>
    <filter id="filter0_i_75_815" width="107.999" height="39.54" x="52.001" y="5.84" colorInterpolationFilters="sRGB" filterUnits="userSpaceOnUse">
      <feFlood floodOpacity="0" result="BackgroundImageFix"></feFlood>
      <feBlend in="SourceGraphic" in2="BackgroundImageFix" result="shape"></feBlend>
      <feColorMatrix in="SourceAlpha" result="hardAlpha" values="0 0 0 0 0 0 0 0 0 0 0 0 0 0 0 0 0 0 127 0"></feColorMatrix>
      <feOffset dy="5.161"></feOffset>
      <feGaussianBlur stdDeviation="32.258"></feGaussianBlur>
      <feComposite in2="hardAlpha" k2="-1" k3="1" operator="arithmetic"></feComposite>
      <feColorMatrix values="0 0 0 0 0 0 0 0 0 0 0 0 0 0 0 0 0 0 0.28 0"></feColorMatrix>
      <feBlend in2="shape" result="effect1_innerShadow_75_815"></feBlend>
    </filter>
  </defs>
</svg>
