<svg width="42" height="42" viewBox="0 0 42 42" fill="none" xmlns="http://www.w3.org/2000/svg">
<path fillRule="evenodd" clip-rule="evenodd" d="M34.5625 10.5C34.5625 9.77513 33.9749 9.1875 33.25 9.1875H17.5C16.7751 9.1875 16.1875 9.77513 16.1875 10.5C16.1875 11.2249 16.7751 11.8125 17.5 11.8125H33.25C33.9749 11.8125 34.5625 11.2249 34.5625 10.5Z" fill="#402E32"/>
<path fillRule="evenodd" clip-rule="evenodd" d="M34.5625 29.0132C34.5625 28.2883 33.9749 27.7007 33.25 27.7007H22.75C22.0251 27.7007 21.4375 28.2883 21.4375 29.0132C21.4375 29.7381 22.0251 30.3257 22.75 30.3257H33.25C33.9749 30.3257 34.5625 29.7381 34.5625 29.0132Z" fill="#402E32"/>
<path fillRule="evenodd" clip-rule="evenodd" d="M34.5625 19.7563C34.5625 19.0315 33.9749 18.4438 33.25 18.4438H8.75C8.02513 18.4438 7.4375 19.0315 7.4375 19.7563C7.4375 20.4812 8.02513 21.0688 8.75 21.0688H33.25C33.9749 21.0688 34.5625 20.4812 34.5625 19.7563Z" fill="#402E32"/>
</svg>
