<svg width="44" height="44" viewBox="0 0 44 44" fill="none" xmlns="http://www.w3.org/2000/svg">
<path fillRule="evenodd" clip-rule="evenodd" d="M25.2219 3.22181C29.5177 -1.07394 36.4824 -1.07394 40.7782 3.22181C45.0739 7.51759 45.0739 14.4824 40.7782 18.7782L31.9782 27.5782C27.6824 31.8739 20.7177 31.8739 16.4219 27.5781C15.5627 26.719 15.5627 25.326 16.4219 24.4669C17.2811 23.6077 18.674 23.6077 19.5332 24.4669C22.1106 27.0443 26.2894 27.0443 28.8669 24.4669L37.6669 15.6669C40.2444 13.0895 40.2444 8.91056 37.6669 6.3331C35.0894 3.75564 30.9107 3.75564 28.3332 6.3331L25.9141 8.75223C25.0549 9.61139 23.662 9.61139 22.8028 8.75224C21.9436 7.89309 21.9436 6.50013 22.8028 5.64097L25.2219 3.22181ZM12.0218 16.4219C16.3176 12.1261 23.2824 12.1261 27.5782 16.4219C28.4373 17.2811 28.4373 18.674 27.5781 19.5332C26.719 20.3923 25.326 20.3923 24.4669 19.5332C21.8894 16.9557 17.7106 16.9557 15.1331 19.5332L6.33309 28.3332C3.75564 30.9107 3.75564 35.0894 6.3331 37.6669C8.91056 40.2444 13.0895 40.2444 15.6669 37.6669L18.0904 35.2435C18.9496 34.3844 20.3426 34.3845 21.2017 35.2436C22.0608 36.1028 22.0608 37.4958 21.2016 38.3549L18.7782 40.7782C14.4824 45.0739 7.5176 45.0739 3.22182 40.7782C-1.07394 36.4824 -1.07394 29.5177 3.22181 25.2219L12.0218 16.4219C12.0218 16.4219 12.0218 16.4219 12.0218 16.4219Z" fill="#D7B56D"/>
</svg>
