<svg width="51" height="51" viewBox="0 0 51 51" fill="none" xmlns="http://www.w3.org/2000/svg">
<path d="M25.015 50.03C38.8304 50.03 50.03 38.8304 50.03 25.015C50.03 11.1996 38.8304 0 25.015 0C11.1996 0 0 11.1996 0 25.015C0 38.8304 11.1996 50.03 25.015 50.03Z" fill="#34AADF"/>
<path d="M10.7235 24.4671C10.7235 24.4671 23.1147 19.1955 27.4121 17.3392C29.0596 16.5968 34.6463 14.2208 34.6463 14.2208C34.6463 14.2208 37.2248 13.1814 37.0099 15.7058C36.9383 16.7453 36.3653 20.3834 35.7923 24.3186C34.9328 29.8873 34.0017 35.9757 34.0017 35.9757C34.0017 35.9757 33.8584 37.6834 32.6408 37.9804C31.4232 38.2774 29.4176 36.941 29.0596 36.6439C28.773 36.4212 23.6877 33.08 21.8254 31.4465C21.324 31.001 20.751 30.1101 21.897 29.0706C24.4755 26.6204 27.5554 23.5762 29.4176 21.6457C30.2772 20.7547 31.1366 18.6757 27.5554 21.2002C22.47 24.8384 17.4563 28.2538 17.4563 28.2538C17.4563 28.2538 16.3103 28.9963 14.1615 28.328C12.0127 27.6599 9.50582 26.7688 9.50582 26.7688C9.50582 26.7688 7.78691 25.6551 10.7235 24.4671Z" fill="white"/>
</svg>
