<svg width="47" height="40" viewBox="0 0 47 40" fill="none" xmlns="http://www.w3.org/2000/svg">
<path d="M46.6266 5.14567C45.1148 5.7963 43.5254 6.24937 41.8977 6.49367C42.6587 6.36321 43.7784 4.99348 44.2241 4.43906C44.9012 3.60277 45.4173 2.64808 45.746 1.62348C45.746 1.54739 45.8221 1.43868 45.746 1.38432C45.7077 1.36339 45.6647 1.35242 45.621 1.35242C45.5773 1.35242 45.5343 1.36339 45.496 1.38432C43.7286 2.34142 41.8476 3.07191 39.8975 3.55851C39.8295 3.57927 39.7572 3.58114 39.6882 3.5639C39.6193 3.54666 39.5563 3.51098 39.5061 3.46067C39.3543 3.27992 39.1909 3.10925 39.0169 2.94974C38.2215 2.23709 37.3191 1.65382 36.3427 1.22126C35.0246 0.680511 33.6009 0.446326 32.1791 0.536387C30.7995 0.623515 29.4526 0.993551 28.2221 1.62348C27.0104 2.28761 25.9454 3.18986 25.0912 4.27599C24.1927 5.39391 23.5441 6.69127 23.1888 8.08082C22.8959 9.40257 22.8627 10.7687 23.091 12.1031C23.091 12.3314 23.091 12.364 22.8953 12.3314C15.1443 11.1899 8.78482 8.43957 3.58851 2.53664C3.36022 2.27574 3.24064 2.27574 3.05583 2.53664C0.794673 5.97186 1.89264 11.4073 4.71908 14.0925C5.09957 14.4512 5.49092 14.7991 5.90402 15.1252C4.60811 15.0332 3.34385 14.682 2.18615 14.0925C1.96874 13.9511 1.84915 14.0272 1.83828 14.2881C1.80747 14.6498 1.80747 15.0135 1.83828 15.3752C2.06511 17.1087 2.74827 18.7508 3.81788 20.1337C4.8875 21.5166 6.3052 22.5905 7.92601 23.2458C8.32113 23.415 8.73283 23.5426 9.15443 23.6263C7.95474 23.8625 6.72431 23.8992 5.51266 23.735C5.25176 23.6806 5.15392 23.822 5.25176 24.072C6.84979 28.4204 10.3176 29.7466 12.8614 30.4858C13.2093 30.5402 13.5572 30.5402 13.9485 30.6272C13.9485 30.6272 13.9485 30.6272 13.8833 30.6924C13.1332 32.0621 10.1002 32.9862 8.70872 33.4645C6.16891 34.3768 3.461 34.7255 0.772931 34.4864C0.348964 34.4211 0.251126 34.432 0.142416 34.4864C0.0337067 34.5407 0.142416 34.6603 0.261997 34.769C0.805544 35.1277 1.34909 35.443 1.91438 35.7474C3.59725 36.6653 5.37639 37.3944 7.2194 37.9216C16.7641 40.5523 27.5046 38.6173 34.6685 31.4968C40.2997 25.9092 42.2782 18.2017 42.2782 10.4833C42.2782 10.1898 42.6369 10.0159 42.8435 9.86366C44.2681 8.75362 45.5241 7.44269 46.5722 5.97186C46.7537 5.75261 46.8468 5.47346 46.8331 5.18915C46.8331 5.02609 46.8331 5.0587 46.6266 5.14567Z" fill="#33CCFF"/>
</svg>
