<svg width="30" height="24" viewBox="0 0 30 24" fill="none" xmlns="http://www.w3.org/2000/svg">
<path d="M15 24H0V21H8.625C7.53 16.785 4.215 13.485 0 12.39C0.96 12.15 1.965 12 3 12C9.63 12 15 17.37 15 24ZM30 12.39C29.04 12.15 28.035 12 27 12C22.605 12 18.78 14.37 16.68 17.895C17.115 18.885 17.475 19.92 17.685 21C17.88 21.975 17.985 22.98 17.985 24H20.985H29.985V21H21.36C22.47 16.785 25.785 13.485 30 12.39ZM20.46 10.53C21.63 7.395 23.805 4.77 26.595 3.03C20.16 3.24 15 8.505 15 15C15 15.015 15 15.03 15 15.03C16.425 13.125 18.3 11.58 20.46 10.53ZM14.13 7.275C12.87 3.99 10.32 1.335 7.05 0C9.21 2.79 10.5 6.27 10.5 10.065C10.5 10.38 10.455 10.68 10.44 10.98C11.085 11.34 11.685 11.76 12.27 12.21C12.585 10.44 13.245 8.775 14.13 7.275Z" fill="#D7B56D"/>
</svg>
