<svg xmlns="http://www.w3.org/2000/svg" width="155" height="45" fill="none" viewBox="0 0 155 45">
  <path fill="#fff" fillRule="evenodd" d="M72.498 20.963h-7.711v-8.526h7.5c.249-.002.494.04.724.122.228.083.435.206.608.36.173.15.31.33.403.526.092.197.138.409.134.621v1.14c.009.303-.084.603-.267.863-.182.26-.447.468-.763.6.368.107.687.314.91.59.223.276.338.607.33.944v1.131a1.4 1.4 0 01-.134.621c-.093.197-.23.376-.404.526-.172.155-.38.277-.608.36a2.062 2.062 0 01-.722.122zm-1.149-1.898a.472.472 0 00.292-.11.36.36 0 00.127-.254v-.688a.36.36 0 00-.127-.253.472.472 0 00-.292-.11h-3.965v1.415h3.965zm-.21-3.314c.056 0 .112-.009.164-.028a.415.415 0 00.226-.199c.02-.043.03-.09.03-.137v-.68a.303.303 0 00-.028-.141.416.416 0 00-.228-.202.464.464 0 00-.164-.029h-3.755v1.416h3.755zm7.037 5.213h-2.607V19.12h2.606v1.843zm4.047 0h-2.607v-8.527h2.607v8.527zm12.395 0H92.01l-5.213-5.3v5.3H84.19v-8.527h2.607l5.213 5.3v-5.3h2.607v8.527zm8.476 0h-3.162l-4.266-8.527h2.817l3.016 6.027 3.026-6.027h2.816l-4.274 8.527h.027zm13.927 0h-6.881a2.037 2.037 0 01-1.325-.48 1.535 1.535 0 01-.553-1.15v-5.268c.002-.431.201-.844.553-1.15a2.038 2.038 0 011.325-.479h6.881v1.938h-5.742a.47.47 0 00-.159.03.422.422 0 00-.133.08.358.358 0 00-.095.12.308.308 0 00-.032.142v1.044h5.322v1.898h-5.313v1.052c.004.095.05.186.128.253a.468.468 0 00.291.11h5.742v1.9l-.009-.04zm8.969 0h-7.401v-1.899h6.252a.422.422 0 00.39-.227c.02-.043.03-.09.029-.137v-.688a.311.311 0 00-.029-.137.424.424 0 00-.39-.227h-4.475a2.067 2.067 0 01-.717-.12 1.862 1.862 0 01-.605-.354 1.601 1.601 0 01-.415-.528 1.42 1.42 0 01-.141-.627v-1.954c.005-.43.204-.843.556-1.147a2.047 2.047 0 011.322-.482h7.291v1.938h-6.142a.46.46 0 00-.301.11.339.339 0 00-.091.12.303.303 0 00-.028.142v.68a.336.336 0 00.119.253.46.46 0 00.301.11h4.475c.249-.006.496.032.727.111.232.08.44.2.617.352.176.153.315.335.406.536.091.2.135.415.127.631v1.954a1.41 1.41 0 01-.138.622 1.587 1.587 0 01-.409.525 1.864 1.864 0 01-.608.36 2.069 2.069 0 01-.722.122v-.04zm8.986 0h-2.616v-6.59h-3.49v-1.897h9.587v1.898h-3.481v6.628-.04zm-65.122 4.832h-5.25v6.818h5.25c.308.001.614-.05.898-.152.285-.102.544-.252.761-.44.218-.19.39-.414.508-.662a1.8 1.8 0 00.176-.779v-2.76a1.8 1.8 0 00-.176-.779 2.031 2.031 0 00-.508-.66 2.383 2.383 0 00-.76-.441 2.656 2.656 0 00-.899-.153v.008zm.912 4.643c0 .27-.123.528-.342.719-.218.191-.515.3-.825.301h-3.582v-4.508H69.6c.309.002.604.11.822.299.219.19.342.445.345.713v2.476zm2.734-3.338v4.208c0 .172.039.341.115.5.075.158.186.302.325.423.14.121.306.217.488.283.183.066.378.1.576.1h4.876v-1.156h-4.557a.372.372 0 01-.128-.022.34.34 0 01-.107-.064.29.29 0 01-.071-.095.255.255 0 01-.022-.111v-1.376h4.247v-1.18h-4.247v-1.375a.257.257 0 01.022-.112.292.292 0 01.07-.095.338.338 0 01.108-.064.372.372 0 01.128-.022h4.557v-1.155h-4.84c-.399 0-.781.138-1.063.383-.282.244-.44.576-.44.922l-.037.008zm11.22 4.129l-2.79-5.434h-1.54l3.5 6.818h1.668l3.491-6.818h-1.513l-2.798 5.434h-.018zm5.04-4.129v4.208c-.001.171.037.34.111.499a1.3 1.3 0 00.324.424c.139.12.304.217.486.283.181.066.377.1.574.1h4.84v-1.156h-4.558a.341.341 0 01-.23-.089.289.289 0 01-.067-.094.251.251 0 01-.022-.109v-1.376h4.238v-1.18h-4.238v-1.375a.252.252 0 01.022-.11.282.282 0 01.068-.094.327.327 0 01.104-.064.371.371 0 01.125-.025h4.557v-1.155h-4.821a1.69 1.69 0 00-.574.1 1.526 1.526 0 00-.486.283 1.301 1.301 0 00-.324.424 1.154 1.154 0 00-.11.498l-.02.008zm9.005-1.305h-1.422v6.818h5.833V31.46h-4.411v-5.663zm11.456 0h-4.666c-.399 0-.781.138-1.063.383a1.225 1.225 0 00-.441.922v4.208c0 .172.039.341.115.5.075.158.186.302.326.423.139.121.305.217.488.283.182.066.378.1.575.1h4.666c.198 0 .393-.035.575-.1.182-.066.347-.162.486-.283a1.29 1.29 0 00.323-.424c.075-.158.113-.328.112-.499v-4.208c.001-.17-.037-.34-.112-.498a1.289 1.289 0 00-.323-.424 1.525 1.525 0 00-.486-.283 1.695 1.695 0 00-.575-.1zm.092 5.371a.284.284 0 01-.101.205.376.376 0 01-.237.087h-4.174a.366.366 0 01-.235-.085.266.266 0 01-.093-.207v-3.955a.267.267 0 01.093-.206.368.368 0 01.235-.086h4.156a.371.371 0 01.236.087.285.285 0 01.102.205v3.955h.018zm8.75-5.37h-5.834v6.817h1.422v-2.42h4.421c.198 0 .394-.034.578-.1.183-.066.349-.163.488-.285.14-.122.251-.267.326-.426.075-.16.113-.33.112-.502v-1.772c0-.346-.159-.678-.441-.923a1.627 1.627 0 00-1.063-.382l-.009-.008zm.091 2.941a.278.278 0 01-.102.202.368.368 0 01-.236.083h-4.165v-2.072h4.165c.09 0 .176.03.239.086.063.055.099.13.099.207v1.494zm9.725-2.942h-.073l-2.735 3.591-2.734-3.59h-1.531v6.817h1.422V27.87l2.114 2.791h1.422l2.123-2.791v4.745h1.423v-6.818h-1.431zm2.926 1.305v4.208c-.001.171.036.34.111.499.074.158.184.302.323.424.138.12.305.217.486.283.182.066.377.1.574.1h4.84v-1.156h-4.558a.372.372 0 01-.124-.024.339.339 0 01-.105-.064.29.29 0 01-.068-.095.26.26 0 01-.022-.109v-1.376h4.239v-1.18h-4.239v-1.375a.26.26 0 01.022-.11.282.282 0 01.068-.094.368.368 0 01.229-.09h4.558v-1.154h-4.84c-.197 0-.392.034-.574.1a1.525 1.525 0 00-.486.283 1.287 1.287 0 00-.323.424 1.147 1.147 0 00-.111.498v.008zm13.844 3.63l-4.83-4.935h-1.432v6.818h1.432V27.68l4.83 4.935h1.412v-6.818h-1.412v4.936zm2.342-3.78h2.79v5.663h1.421v-5.663H155v-1.155h-7.009v1.155z" clipRule="evenodd"></path>
  <path fill="#fff" d="M51.67 5.713h-1.294v33.631h1.294V5.713z"></path>
  <path fill="#fff" fillRule="evenodd" d="M28.957 28.2L2.817 42.104c-.27.148-.581.232-.901.243a2.057 2.057 0 01-.922-.18 1.595 1.595 0 01-.682-.557 1.3 1.3 0 01-.23-.788l.056-6.644c.004-.413.18-.81.495-1.12.314-.31.747-.51 1.218-.565.303-.037.593-.131.85-.276.257-.145.474-.337.636-.562l4.192-5.68c.175-.242.418-.442.707-.58a2.17 2.17 0 01.943-.21l19.003.047a1.86 1.86 0 011.085.318c.308.212.521.511.602.845.084.347.042.707-.122 1.032-.163.325-.44.597-.79.78v-.009zm-28.956.38c-.013.338.11.67.348.94.237.27.575.46.955.538.399.077.814.041 1.188-.1a1.86 1.86 0 00.89-.69l9.251-12.537a1.403 1.403 0 00.146-1.582L9.133 8.457a1.5 1.5 0 01-.211-.763 1.5 1.5 0 01.211-.763c.22-.356.274-.772.152-1.161a1.625 1.625 0 00-.808-.935L3.01 2.153a2.05 2.05 0 00-.943-.196c-.33.01-.65.097-.926.252a1.805 1.805 0 00-.675.62c-.16.253-.24.538-.236.827l-.21 24.876-.018.047zM13.827 7.041a2.061 2.061 0 00-1.157-.189c-.399.05-.768.214-1.048.465a1.61 1.61 0 00-.588.889c-.082.343-.036.7.132 1.018l7.538 13.77c.137.26.359.477.637.63.278.15.601.23.93.224h9.507c.317-.019.634.039.916.168.282.128.517.322.678.56.285.312.689.525 1.138.6.45.076.916.009 1.314-.189l5.26-2.8c.277-.151.506-.361.665-.61a1.52 1.52 0 00.246-.813 1.315 1.315 0 00-.21-.788 1.597 1.597 0 00-.656-.573L13.827 7.042z" clipRule="evenodd"></path>
</svg>